<?xml version="1.0" encoding="UTF-8"?>
<svg version="1.1" xmlns="http://www.w3.org/2000/svg" width="69" height="60">
<path d="M0 0 C22.77 0 45.54 0 69 0 C69 19.8 69 39.6 69 60 C46.23 60 23.46 60 0 60 C0 40.2 0 20.4 0 0 Z " fill="#929391" transform="translate(0,0)"/>
<path d="M0 0 C5.28 0 10.56 0 16 0 C16 19.8 16 39.6 16 60 C-6.77 60 -29.54 60 -53 60 C-53 53.07 -53 46.14 -53 39 C-50 42 -50 42 -48.5 44.75 C-44.3431091 51.1366408 -35.69343253 55.49313596 -28.5078125 57.56640625 C-15.82658959 59.75895414 -5.44825954 57.19115042 5.578125 51.0859375 C10.07630855 47.21169554 13.43366784 42.99297366 14.55712891 37.05566406 C14.76861654 33.82833244 14.77039149 30.67026812 14.6875 27.4375 C14.70232422 26.35275391 14.71714844 25.26800781 14.73242188 24.15039062 C14.66074767 17.20642516 13.69422872 12.26711723 9 7 C6.65532673 4.91916098 6.65532673 4.91916098 4.1875 3.5625 C2.78345246 2.72190384 1.38481328 1.87191947 0 1 C0 0.67 0 0.34 0 0 Z " fill="#FDFDFD" transform="translate(53,0)"/>
<path d="M0 0 C1.65 0.33 3.3 0.66 5 1 C3.44100328 8.37405447 1.52658823 15.61659196 -0.5 22.875 C-0.80808594 24.00164063 -1.11617187 25.12828125 -1.43359375 26.2890625 C-1.73394531 27.36671875 -2.03429688 28.444375 -2.34375 29.5546875 C-2.61380859 30.52905762 -2.88386719 31.50342773 -3.16210938 32.50732422 C-4 35 -4 35 -6 38 C-7.32 37.67 -8.64 37.34 -10 37 C-9.41392153 29.40506533 -7.65906891 22.43523621 -5.5625 15.125 C-5.09360352 13.43503906 -5.09360352 13.43503906 -4.61523438 11.7109375 C-2.26223214 3.39334821 -2.26223214 3.39334821 0 0 Z " fill="#F2F2F2" transform="translate(37,7)"/>
<path d="M0 0 C0.73734375 0.24105469 1.4746875 0.48210938 2.234375 0.73046875 C1.72915278 5.1090613 -0.94389722 7.54698099 -3.765625 10.73046875 C-1.21957903 14.25428562 -1.21957903 14.25428562 2.234375 16.73046875 C2.234375 18.05046875 2.234375 19.37046875 2.234375 20.73046875 C-1.16652671 21.14196575 -2.44659784 20.96448867 -5.2578125 18.90234375 C-6.04414063 18.103125 -6.83046875 17.30390625 -7.640625 16.48046875 C-8.44242188 15.6915625 -9.24421875 14.90265625 -10.0703125 14.08984375 C-11.765625 11.73046875 -11.765625 11.73046875 -11.7578125 9.703125 C-10.4943974 7.19121703 -8.97655755 5.43419075 -7.015625 3.41796875 C-6.34015625 2.69996094 -5.6646875 1.98195313 -4.96875 1.2421875 C-2.765625 -0.26953125 -2.765625 -0.26953125 0 0 Z " fill="#F9F3F3" transform="translate(21.765625,15.26953125)"/>
<path d="M0 0 C4.26377576 0.50866097 6.33650972 1.74539623 9.375 4.75 C10.08398438 5.42546875 10.79296875 6.1009375 11.5234375 6.796875 C13 9 13 9 12.9296875 11.52734375 C11.37025908 15.67489916 8.5162537 18.37946566 5 21 C2.0625 21.4375 2.0625 21.4375 0 21 C0.36856731 17.68289418 0.68230948 16.30834668 3.125 13.9375 C5.23180714 12.20983376 5.23180714 12.20983376 5 10 C4.05340779 7.83116246 4.05340779 7.83116246 1.9375 6 C0 4 0 4 0 0 Z " fill="#F3F8F8" transform="translate(45,15)"/>
<path d="M0 0 C5.28 0 10.56 0 16 0 C13.73812905 2.26187095 11.52076929 4.23053885 9.0625 6.25 C5.30095886 9.49891859 3.17701042 12.55527039 1 17 C0.67 17 0.34 17 0 17 C0 11.39 0 5.78 0 0 Z " fill="#FEFCFD" transform="translate(0,0)"/>
</svg>
